<svg width="20" height="20" viewBox="0 0 20 20" fill="none" xmlns="http://www.w3.org/2000/svg">
  <circle cx="10" cy="10" r="3.5" stroke="currentColor" stroke-width="1.8"/>
  <path d="M13.5 10V11.5C13.5 12.163 13.7634 12.7989 14.2322 13.2678C14.7011 13.7366 15.337 14 16 14C16.663 14 17.2989 13.7366 17.7678 13.2678C18.2366 12.7989 18.5 12.163 18.5 11.5V10C18.5 7.74566 17.6045 5.58365 16.0104 3.98959C14.4163 2.39553 12.2543 1.5 10 1.5C7.74566 1.5 5.58365 2.39553 3.98959 3.98959C2.39553 5.58365 1.5 7.74566 1.5 10C1.5 12.2543 2.39553 14.4163 3.98959 16.0104C5.58365 17.6045 7.74566 18.5 10 18.5H12" stroke="currentColor" stroke-width="1.8" stroke-linecap="round" stroke-linejoin="round"/>
</svg>
